<?xml version="1.0" standalone="no"?>
<!DOCTYPE svg PUBLIC "-//W3C//DTD SVG 20010904//EN"
 "http://www.w3.org/TR/2001/REC-SVG-20010904/DTD/svg10.dtd">
<svg version="1.0" xmlns="http://www.w3.org/2000/svg"
 width="256.000000pt" height="256.000000pt" viewBox="0 0 256.000000 256.000000"
 preserveAspectRatio="xMidYMid meet">
<metadata>
Created by potrace 1.11, written by Peter Selinger 2001-2013
</metadata>
<g transform="translate(0.000000,256.000000) scale(0.100000,-0.100000)"
fill="#000000" stroke="none">
<path d="M1158 2525 c-2 -2 -27 -6 -57 -10 -199 -25 -414 -115 -581 -244 -41
-32 -197 -186 -227 -224 -81 -103 -183 -307 -218 -437 -50 -187 -55 -443 -11
-615 11 -45 11 -53 -6 -80 -10 -16 -18 -38 -18 -48 0 -10 -4 -16 -8 -13 -4 3
-7 -10 -6 -27 7 -88 7 -114 -1 -128 -7 -11 -6 -11 10 1 17 14 18 13 13 -7 -4
-14 -1 -24 8 -27 8 -3 14 -15 14 -26 0 -12 4 -19 9 -16 5 3 11 -1 14 -9 4 -10
1 -12 -11 -8 -9 3 -14 2 -9 -2 4 -5 17 -9 30 -10 15 -1 22 -8 21 -22 0 -11 5
-20 12 -20 7 0 11 4 8 9 -3 4 -1 8 4 8 6 0 12 -7 16 -15 3 -8 0 -15 -6 -15 -6
0 -8 -3 -5 -6 4 -4 13 -1 22 6 10 8 15 9 15 1 0 -6 5 -11 11 -11 5 0 7 5 3 12
-4 7 -3 8 4 4 6 -4 8 -14 5 -24 -5 -13 -4 -15 8 -6 15 11 25 11 51 0 10 -5 15
-13 11 -19 -3 -5 -2 -7 4 -4 5 3 57 -40 114 -96 198 -194 411 -303 684 -351
78 -13 352 -15 385 -3 8 3 29 8 45 10 55 8 163 40 230 68 17 7 32 13 35 14 26
6 189 98 224 126 84 66 140 116 183 161 29 31 54 53 57 50 4 -3 6 2 6 11 0 9
5 19 12 23 7 4 8 3 4 -4 -10 -16 7 -15 23 1 9 7 12 8 7 0 -4 -7 0 -10 11 -9 9
2 19 9 21 17 3 11 1 11 -7 -1 -6 -8 -11 -10 -11 -4 0 18 13 24 27 13 10 -9 13
-8 13 1 0 10 3 10 15 0 13 -11 14 -10 8 6 -6 17 -5 17 10 5 15 -12 17 -12 12
1 -4 9 0 18 9 21 10 4 13 1 9 -9 -3 -7 -1 -14 5 -14 6 0 9 11 8 25 -2 13 0 22
4 20 4 -3 19 6 33 19 14 13 28 22 31 19 2 -3 2 4 -1 16 -3 13 -1 21 6 21 7 0
9 -5 5 -12 -4 -7 -3 -8 5 -4 9 6 9 11 0 22 -9 11 -8 14 7 15 11 0 14 3 8 5
-15 6 -5 45 15 62 9 8 11 11 4 7 -9 -4 -11 5 -9 30 1 20 -1 38 -6 41 -5 3 -4
12 2 19 8 9 8 14 0 17 -6 2 -12 10 -14 18 -1 8 -10 29 -19 46 -9 17 -15 33
-12 35 2 2 11 40 20 84 19 88 28 325 15 396 -4 24 -11 62 -14 84 -20 143 -100
329 -207 485 -84 121 -304 330 -349 330 -5 0 -10 3 -10 8 0 4 -33 24 -72 44
-206 103 -345 139 -565 143 -78 2 -143 2 -145 0z"/>
<path d="M247 506 c-4 -10 -1 -13 8 -9 8 3 12 9 9 14 -7 12 -11 11 -17 -5z"/>
</g>
</svg>
